<svg xmlns="http://www.w3.org/2000/svg" width="1440" height="1024" viewBox="0 0 1440 1024"><g transform="translate(-2798 -1973)"><path d="M1213.937,1023.9q-604.509,0-1209.02.1C.973,1024,0,1023.364,0,1019.2Q.195,623.627.117,228.053c2.436-.186,3.325,1.957,4.7,3.251,10.9,10.246,20.72,21.579,32.21,31.237,13.088,11,39.281,10.044,52.1-2.857q85.548-86.1,171.555-171.735a38.359,38.359,0,0,0,3.5-4.165c10.992-14.679,9.415-39.159-4.716-52.854C250.5,22.241,241.762,13.32,232.98,4.443c-1.213-1.226-3.146-2.1-2.9-4.345Q832.744.1,1435.4,0C1439.152,0,1440,.848,1440,4.6q-.154,393.673-.093,787.345c-2.251.25-3.121-1.686-4.348-2.9-8.763-8.666-17.43-17.428-26.177-26.111a40.881,40.881,0,0,0-57.992.049q-84.444,84.432-168.882,168.87c-16.881,16.881-16.91,42.172-.057,59.057,9.53,9.548,19.1,19.058,28.591,28.643C1212.253,1020.777,1214.186,1021.647,1213.937,1023.9Z" transform="translate(2798 1973)" fill="#212525" opacity="0"/><path d="M1213.937,1023.9c.249-2.25-1.684-3.12-2.9-4.346-9.493-9.585-19.061-19.1-28.591-28.643-16.853-16.885-16.824-42.176.057-59.057q84.441-84.437,168.882-168.87a40.881,40.881,0,0,1,57.992-.049c8.747,8.683,17.414,17.445,26.177,26.111,1.227,1.213,2.1,3.149,4.348,2.9q0,113.979.1,227.955c.006,3.424-.672,4.1-4.1,4.1Q1324.921,1023.8,1213.937,1023.9Z" transform="translate(2798 1973)" fill="#5a6762"/><path d="M230.083.1c-.249,2.249,1.684,3.119,2.9,4.345,8.782,8.877,17.523,17.8,26.489,26.487,14.131,13.695,15.708,38.175,4.716,52.854a38.359,38.359,0,0,1-3.5,4.165q-85.8,85.845-171.555,171.735c-12.819,12.9-39.012,13.857-52.1,2.857-11.49-9.658-21.314-20.991-32.21-31.237-1.376-1.294-2.265-3.437-4.7-3.251Q.117,116.2.019,4.342C.012.736.764-.006,4.363,0Q117.223.195,230.083.1Z" transform="translate(2798 1973)" fill="#5a6762"/></g></svg>